<?xml version="1.0" encoding="UTF-8"?>
<svg version="1.1" xmlns="http://www.w3.org/2000/svg" width="2560" height="796">
<path d="M0 0 C52.47 0 104.94 0 159 0 C159 94.38 159 188.76 159 286 C261.3 286 363.6 286 469 286 C469 191.62 469 97.24 469 0 C521.47 0 573.94 0 628 0 C628 231.99 628 463.98 628 703 C575.53 703 523.06 703 469 703 C469 608.29 469 513.58 469 416 C366.7 416 264.4 416 159 416 C159 510.71 159 605.42 159 703 C106.53 703 54.06 703 0 703 C0 471.01 0 239.02 0 0 Z " fill="#005AA9" transform="translate(75,67)"/>
<path d="M0 0 C0.33 0.33 0.66 0.66 1 1 C1.33 -7.91 1.66 -16.82 2 -26 C47.54 -26 93.08 -26 140 -26 C140 149.56 140 325.12 140 506 C93.14 506 46.28 506 -2 506 C-2.33 497.42 -2.66 488.84 -3 480 C-8.630625 482.908125 -8.630625 482.908125 -14.375 485.875 C-42.40261582 500.01134659 -71.90899714 509.48099314 -103 514 C-103.79486816 514.11714355 -104.58973633 514.23428711 -105.40869141 514.35498047 C-176.76611381 524.28746139 -251.6079419 504.1165083 -309 461 C-312.3975096 458.40581722 -315.71379717 455.73356812 -319 453 C-319.5043457 452.58588867 -320.00869141 452.17177734 -320.52832031 451.74511719 C-334.25877817 440.44105666 -347.15357923 428.1303717 -358 414 C-359.00167131 412.73754054 -360.00435222 411.47588173 -361.0078125 410.21484375 C-393.67989108 368.79367479 -413.97312379 318.54839197 -419 266 C-419.11085938 264.95457031 -419.22171875 263.90914062 -419.3359375 262.83203125 C-425.93066444 189.66620936 -401.88895395 117.16779608 -355.3046875 60.8984375 C-350.4097556 55.07113762 -345.26433033 49.49346332 -340 44 C-339.22011719 43.17886719 -338.44023438 42.35773438 -337.63671875 41.51171875 C-332.98985474 36.73279466 -328.06714675 32.46227323 -322.859375 28.3046875 C-320.96791612 26.78015097 -319.10233727 25.22288055 -317.265625 23.6328125 C-243.02681743 -40.55709571 -131.6487465 -54.27231799 0 0 Z M-170 83 C-170.7204248 83.16097168 -171.44084961 83.32194336 -172.18310547 83.48779297 C-197.29501481 89.23949762 -220.4910433 101.27314049 -240 118 C-240.55671387 118.47695313 -241.11342773 118.95390625 -241.68701172 119.4453125 C-272.49952476 146.17510056 -292.81806506 184.87802531 -295.87109375 225.77099609 C-298.68685815 274.46025551 -281.9643351 315.31097018 -249.89453125 351.3671875 C-222.13623876 380.68252154 -180.57757548 397.32101323 -140.67724609 398.9765625 C-104.19917411 399.77906575 -65.66319029 389.25947409 -37 366 C-36.15179687 365.35160156 -35.30359375 364.70320313 -34.4296875 364.03515625 C-4.93833516 340.94936003 13.6285987 310.05716989 23 274 C23.18224121 273.30551758 23.36448242 272.61103516 23.55224609 271.89550781 C32.51027044 235.72469906 24.69283198 195.12787903 7 163 C6.43539063 161.94554687 5.87078125 160.89109375 5.2890625 159.8046875 C-1.25114999 148.0445871 -9.78368106 137.75652947 -19 128 C-19.69480469 127.25234375 -20.38960937 126.5046875 -21.10546875 125.734375 C-48.40189974 97.29437768 -89.13624098 80.44031452 -128.26005554 79.61099243 C-142.34075732 79.41198531 -156.2364473 79.7669938 -170 83 Z " fill="#005AAA" transform="translate(1195,264)"/>
<path d="M0 0 C0.93301941 -0.00067474 1.86603882 -0.00134949 2.82733154 -0.00204468 C65.73637177 0.07003537 128.76812115 20.39901149 177.9375 60.25 C178.8553125 60.97574219 179.773125 61.70148438 180.71875 62.44921875 C196.15429797 74.80209263 210.7867957 88.63614708 222.9375 104.25 C223.94526145 105.51696769 224.95307757 106.7838919 225.9609375 108.05078125 C263.23750313 155.35148576 284.57016978 214.22776722 284.14331055 274.57568359 C284.12482328 277.27581087 284.12280348 279.97559659 284.12304688 282.67578125 C284.11813691 284.42969041 284.11231088 286.18359731 284.10546875 287.9375 C284.10435593 288.72624512 284.1032431 289.51499023 284.10209656 290.32763672 C284.05398099 296.0744658 283.51539966 301.47100342 282.9375 307.25 C140.3775 307.25 -2.1825 307.25 -149.0625 307.25 C-145.49875322 323.32407955 -145.49875322 323.32407955 -140.4375 338.8125 C-140.10395508 339.66416748 -139.77041016 340.51583496 -139.42675781 341.39331055 C-123.36142538 381.04228834 -92.94538514 411.74145573 -54.0625 429.25 C-25.7296295 441.04484568 7.9726149 444.87655319 37.9375 437.25 C38.72592285 437.05132324 39.5143457 436.85264648 40.32666016 436.64794922 C76.19399873 427.31587029 110.43451224 405.75846248 130.9375 374.25 C131.73817965 372.87593683 132.52552316 371.49403362 133.30078125 370.10546875 C133.69152832 369.41195313 134.08227539 368.7184375 134.48486328 368.00390625 C135.22760965 366.6577381 135.94500937 365.29717102 136.63232422 363.921875 C137.63671875 362.07421875 137.63671875 362.07421875 139.9375 359.25 C146.09631164 358.6425679 152.09843211 359.98705304 158.14941406 361.07006836 C159.25752441 361.26353348 160.36563477 361.4569986 161.50732422 361.65632629 C165.15696458 362.29505914 168.80503709 362.94230794 172.453125 363.58984375 C174.99176179 364.0363073 177.53047965 364.48231012 180.0692749 364.9278717 C185.38244609 365.86159909 190.69492946 366.79909731 196.00683594 367.73999023 C202.14711038 368.827585 208.28837081 369.90945487 214.43024659 370.98796743 C220.34613906 372.02680968 226.26154576 373.06838186 232.17668915 374.11148262 C234.691684 374.55492649 237.20676468 374.99788381 239.72193146 375.44035149 C243.22943299 376.05804357 246.7363761 376.67880839 250.24316406 377.30053711 C251.28736511 377.4839566 252.33156616 377.6673761 253.40740967 377.85635376 C254.3606311 378.02601151 255.31385254 378.19566925 256.29595947 378.37046814 C257.12477757 378.51703322 257.95359566 378.66359831 258.80752945 378.81460476 C260.9375 379.25 260.9375 379.25 263.9375 380.25 C255.07215767 409.51516231 235.19998307 436.79307162 214.9375 459.25 C214.41736328 459.8265332 213.89722656 460.40306641 213.36132812 460.99707031 C205.30274781 469.88912681 197.14134344 478.52875335 187.9375 486.25 C187.44846191 486.6634668 186.95942383 487.07693359 186.45556641 487.50292969 C134.696173 530.99638688 69.01680614 554.54013312 1.5 554.4375 C0.30322632 554.43609512 0.30322632 554.43609512 -0.91772461 554.43466187 C-13.39872591 554.40296914 -25.69734616 554.09147601 -38.0625 552.25 C-39.64538818 552.01603516 -39.64538818 552.01603516 -41.26025391 551.77734375 C-57.94576029 549.22452509 -74.02969615 545.52158811 -90.0625 540.25 C-90.97660645 539.95254883 -91.89071289 539.65509766 -92.83251953 539.34863281 C-120.97619382 530.04950843 -147.44322643 516.15055697 -171.0625 498.25 C-171.63661621 497.81864746 -172.21073242 497.38729492 -172.80224609 496.94287109 C-181.71289154 490.21753137 -190.03864628 483.00801649 -198.0625 475.25 C-198.71573242 474.61868164 -199.36896484 473.98736328 -200.04199219 473.33691406 C-208.2421592 465.36828118 -216.11519233 457.35593541 -223.0625 448.25 C-223.97882697 447.08567008 -224.89551768 445.92162636 -225.8125 444.7578125 C-261.32967606 399.11797765 -281.22897094 343.00616541 -283.0625 285.25 C-283.10375 284.033125 -283.145 282.81625 -283.1875 281.5625 C-284.30330861 214.6139833 -260.31729254 150.02866845 -217.0625 99.25 C-215.99902344 97.98929688 -215.99902344 97.98929688 -214.9140625 96.703125 C-203.79691979 83.96015509 -191.62585872 71.38331858 -178.0625 61.25 C-177.53333984 60.84442871 -177.00417969 60.43885742 -176.45898438 60.02099609 C-134.10421262 27.55939724 -84.12410617 7.18505908 -31.0625 1.25 C-30.29220459 1.1557373 -29.52190918 1.06147461 -28.72827148 0.96435547 C-19.1848525 -0.07363874 -9.58822095 0.00623531 0 0 Z M-29.0625 119.25 C-29.84302734 119.45399414 -30.62355469 119.65798828 -31.42773438 119.86816406 C-59.26669342 127.2638968 -82.12597449 140.51186147 -103.0625 160.25 C-104.14917969 161.24 -104.14917969 161.24 -105.2578125 162.25 C-118.85204529 175.11336006 -129.15910129 191.6717582 -137.125 208.5 C-137.42446533 209.13236572 -137.72393066 209.76473145 -138.0324707 210.41625977 C-139.31249823 213.22204636 -140.0625 215.12707053 -140.0625 218.25 C-44.3625 218.25 51.3375 218.25 149.9375 218.25 C141.58222528 197.36181321 130.98393145 179.83031425 115.35742188 163.72119141 C114.05939974 162.37630121 112.7861296 161.0076342 111.515625 159.63671875 C88.06967059 134.97126 51.6893164 117.34718851 17.49560547 116.12719727 C-5.99587313 115.46710101 -5.99587313 115.46710101 -29.0625 119.25 Z " fill="#005AAA" transform="translate(1932.0625,225.75)"/>
<path d="M0 0 C3.46400424 16.93434585 6.6576202 33.90124786 9.64453125 50.92578125 C10.0632154 53.30188165 10.48205717 55.67795429 10.90104675 58.05400085 C11.76757144 62.9719451 12.63199029 67.89025339 13.49487305 72.80883789 C14.6012481 79.11414651 15.71343913 85.41841398 16.82718372 91.72242451 C17.68831572 96.60061933 18.54625717 101.47937109 19.40323448 106.35829735 C19.81247776 108.68573303 20.22275928 111.01298641 20.63410378 113.34005165 C21.2044172 116.5689903 21.77038857 119.7986604 22.33520508 123.02856445 C22.58991829 124.46289825 22.58991829 124.46289825 22.84977722 125.9262085 C23.00242035 126.80430679 23.15506348 127.68240509 23.31233215 128.58711243 C23.44595059 129.34738393 23.57956903 130.10765543 23.71723652 130.89096546 C24 133 24 133 24 137 C22.25589844 137.32871094 22.25589844 137.32871094 20.4765625 137.6640625 C-9.20281662 143.44913229 -33.85236806 155.13519512 -56 176 C-56.66386719 176.59941406 -57.32773438 177.19882812 -58.01171875 177.81640625 C-73.05780631 191.94691039 -83.38416411 211.34973706 -90 230.6875 C-90.26651367 231.45658691 -90.53302734 232.22567383 -90.80761719 233.01806641 C-96.57929809 251.12830189 -96.45148274 269.59851769 -96.43273985 288.39656687 C-96.43210905 292.34724001 -96.44880026 296.29784786 -96.46325684 300.24848938 C-96.48591939 307.07280608 -96.49790645 313.89707215 -96.50238609 320.7214241 C-96.50887852 330.58795483 -96.53186976 340.45439452 -96.55872939 350.32088833 C-96.60187937 366.33337883 -96.63191322 382.34586548 -96.65356445 398.35839844 C-96.67460963 413.90171198 -96.70191544 429.44499401 -96.73754883 444.98828125 C-96.73974765 445.9483518 -96.74194648 446.90842235 -96.74421193 447.89758594 C-96.75528247 452.71456978 -96.76647511 457.53155332 -96.77772844 462.34853673 C-96.87074643 502.23233873 -96.93998088 542.11613201 -97 582 C-143.2 582 -189.4 582 -237 582 C-237.0806627 505.25392399 -237.0806627 505.25392399 -237.09765625 473.07421875 C-237.10157126 465.71012361 -237.10561202 458.34602855 -237.10986328 450.98193359 C-237.11039078 450.05912122 -237.11091828 449.13630884 -237.11146176 448.18553245 C-237.12013115 433.33911206 -237.13588246 418.49270735 -237.15430559 403.64629622 C-237.17309039 388.37970411 -237.18413475 373.11312015 -237.18817699 357.84651697 C-237.19090437 348.4464058 -237.19947911 339.04633897 -237.21583293 329.64624147 C-237.22650608 323.17695637 -237.22957761 316.70769377 -237.22700275 310.23840053 C-237.2257373 306.52081008 -237.22750353 302.80329642 -237.23841095 299.08572006 C-237.37538624 249.83162075 -230.75778502 202.6550259 -209 158 C-208.55527344 157.08460449 -208.11054688 156.16920898 -207.65234375 155.22607422 C-198.13230621 135.84457719 -186.70089441 117.70789133 -173 101 C-172.53867676 100.43716309 -172.07735352 99.87432617 -171.60205078 99.29443359 C-159.48020842 84.62527666 -146.16043598 70.55080836 -131 59 C-129.7397896 58.00138131 -128.48076919 57.00125989 -127.22265625 56 C-94.09121599 29.85737552 -43.55881656 0 0 0 Z " fill="#005AAA" transform="translate(2515,188)"/>
<path d="M0 0 C47.85 0 95.7 0 145 0 C145 175.89 145 351.78 145 533 C97.15 533 49.3 533 0 533 C0 357.11 0 181.22 0 0 Z " fill="#005BA9" transform="translate(1429,237)"/>
<path d="M0 0 C2.46758327 1.91371396 4.78548836 3.90876826 7.0859375 6.01953125 C7.84132813 6.68339844 8.59671875 7.34726562 9.375 8.03125 C24.22180925 21.83215 32.89550977 41.89048046 34.0859375 62.01953125 C34.16521484 63.09847656 34.16521484 63.09847656 34.24609375 64.19921875 C35.01315444 84.00939488 27.70267641 104.56454629 14.5859375 119.33203125 C13.09366942 120.9019173 11.59427365 122.46507691 10.0859375 124.01953125 C9.53421875 124.64472656 8.9825 125.26992187 8.4140625 125.9140625 C-4.44314127 140.01243198 -25.09097757 146.91735376 -43.70776367 147.94482422 C-65.53005658 148.6941984 -85.48965152 141.46767164 -101.9140625 127.01953125 C-102.67589844 126.35308594 -103.43773437 125.68664062 -104.22265625 125 C-118.02674048 112.10502357 -127.53982129 92.97903438 -128.25 74.015625 C-128.57979687 50.38137732 -124.33087206 29.91165639 -107.9140625 12.01953125 C-107.25019531 11.26414062 -106.58632812 10.50875 -105.90234375 9.73046875 C-78.70163515 -19.53166139 -32.26365622 -21.92717655 0 0 Z " fill="#005AAA" transform="translate(1548.9140625,34.98046875)"/>
</svg>
